<?xml version="1.0" standalone="no"?>
<!DOCTYPE svg PUBLIC "-//W3C//DTD SVG 20010904//EN"
 "http://www.w3.org/TR/2001/REC-SVG-20010904/DTD/svg10.dtd">
<svg version="1.0" xmlns="http://www.w3.org/2000/svg"
 width="256.000000pt" height="256.000000pt" viewBox="0 0 256.000000 256.000000"
 preserveAspectRatio="xMidYMid meet">
<metadata>
Created by potrace 1.14, written by Peter Selinger 2001-2017
</metadata>
<g transform="translate(0.000000,256.000000) scale(0.100000,-0.100000)"
fill="#000000" stroke="none">
<path d="M894 2537 c-60 -33 -77 -47 -116 -98 -46 -61 -79 -181 -81 -295 -1
-46 -5 -84 -9 -84 -5 0 -8 7 -8 16 0 9 -14 45 -30 80 -97 202 -346 283 -471
152 -43 -45 -61 -91 -64 -158 -3 -106 60 -220 153 -274 28 -16 48 -34 46 -40
-10 -29 -16 -79 -19 -166 -3 -69 -11 -114 -30 -162 -13 -37 -27 -79 -29 -93
-9 -50 -17 -64 -32 -58 -12 4 -13 1 -4 -22 5 -14 10 -57 10 -95 l0 -69 -39
-12 c-29 -9 -43 -8 -60 1 -21 11 -22 10 -16 -12 15 -48 35 -75 74 -102 47 -33
43 -47 -23 -90 -44 -29 -58 -31 -87 -15 -18 9 -19 8 -8 -9 17 -27 96 -75 125
-75 24 0 25 -2 21 -37 -6 -52 -42 -120 -105 -197 -68 -82 -72 -111 -29 -192
38 -72 111 -129 137 -107 14 12 51 13 97 2 12 -2 37 3 56 13 21 11 48 16 66
13 19 -2 41 2 56 12 31 20 31 19 -2 -62 -26 -65 -45 -98 -138 -232 l-45 -65
1007 -3 c553 -1 1008 0 1011 2 2 3 -3 26 -12 53 -8 26 -17 59 -20 73 -3 14
-12 59 -20 100 -22 115 -26 148 -31 271 -6 150 -14 287 -20 320 -4 23 -1 27
26 33 17 3 54 6 80 6 43 0 51 3 61 25 9 20 14 22 31 14 24 -14 122 -5 142 11
22 19 20 43 -3 31 -10 -5 -26 -9 -35 -7 -18 2 -36 16 -21 16 5 0 24 13 42 29
l32 30 0 120 c0 129 -2 133 -55 138 -21 1 -41 14 -68 45 -21 24 -57 65 -81 91
-24 27 -39 50 -32 52 6 2 29 9 51 16 22 7 43 13 47 14 3 0 9 2 11 5 3 3 -26 4
-65 3 -70 -1 -137 15 -162 39 -7 8 -39 31 -72 53 -32 22 -72 52 -89 67 -16 16
-33 28 -37 28 -16 0 -7 22 17 44 14 13 27 38 29 57 3 19 10 66 16 105 10 64 9
74 -8 105 -11 19 -25 51 -32 72 -12 39 -69 87 -103 87 -10 0 -50 -16 -88 -36
-45 -24 -89 -38 -122 -41 -28 -2 -71 -8 -95 -13 -40 -7 -92 0 -197 26 -55 14
-167 20 -182 11 -6 -4 -23 -3 -37 3 -14 5 -33 7 -41 4 -20 -8 -19 2 3 34 10
15 31 57 47 94 31 76 31 138 -1 200 -25 48 -90 106 -133 118 -61 17 -142 11
-187 -13z m1395 -1111 c19 -15 94 -117 89 -121 -4 -5 -146 90 -172 115 -19 18
-18 19 25 18 24 0 50 -5 58 -12z m-1879 -800 c-7 -32 -28 -76 -31 -66 -1 3 -3
39 -4 80 l-3 75 23 -29 c18 -22 21 -35 15 -60z m1221 -76 c13 -36 23 -38 43
-8 l15 21 11 -27 c5 -15 10 -36 10 -47 0 -10 4 -19 10 -19 15 0 64 24 72 35
12 17 16 2 19 -70 1 -39 9 -92 16 -120 24 -84 25 -91 16 -80 -12 15 -82 55
-96 55 -7 0 -29 -11 -50 -25 -20 -14 -37 -23 -37 -20 0 3 -11 -2 -25 -11 -24
-16 -27 -16 -47 2 -30 27 -49 78 -55 152 -6 65 -6 65 18 58 65 -19 67 -18 45
17 -26 41 -27 62 -4 90 12 15 23 27 25 27 2 0 9 -13 14 -30z m-645 -120 c29
-11 30 -20 4 -50 -11 -13 -20 -24 -20 -26 0 -3 48 5 73 12 15 5 17 1 11 -21
-6 -25 -5 -27 17 -20 13 4 34 16 45 27 34 31 40 9 32 -122 -1 -8 -12 -24 -26
-37 l-24 -22 -51 28 c-90 50 -144 66 -174 52 -14 -6 -28 -10 -30 -7 -3 2 4 29
15 58 17 46 23 53 46 52 29 0 28 12 -1 70 l-15 29 37 -7 c20 -4 48 -11 61 -16z
m-246 -185 c0 -22 -45 -117 -65 -135 -36 -34 -32 -7 10 63 19 32 35 62 35 68
0 5 5 9 10 9 6 0 10 -2 10 -5z"/>
</g>
</svg>
